/* XPM */
static char *result[] = {
/* columns rows colors chars-per-pixel */
"64 64 231 2 ",
"   c #0D0E09",
".  c #100F0D",
"X  c #12130E",
"o  c #141513",
"O  c #181713",
"+  c #171813",
"@  c #1A1A15",
"#  c #1C1C1B",
"$  c #350B07",
"%  c #211E1A",
"&  c #381916",
"*  c #1F201C",
"=  c #23241D",
"-  c #292518",
";  c #242422",
":  c #272824",
">  c #2A2A25",
",  c #2C2D2A",
"<  c #342B24",
"1  c #2E302B",
"2  c #32322D",
"3  c #3A352C",
"4  c #2E3131",
"5  c #343532",
"6  c #383834",
"7  c #3B3B36",
"8  c #3C3D3A",
"9  c #4F110E",
"0  c #5E1C1A",
"q  c #631A08",
"w  c #651918",
"e  c #442413",
"r  c #59221E",
"t  c #4B391E",
"y  c #653A1D",
"u  c #5E2925",
"i  c #493625",
"p  c #463728",
"a  c #433C35",
"s  c #4A3C35",
"d  c #433E39",
"f  c #583D38",
"g  c #632825",
"h  c #642C29",
"j  c #6D2E28",
"k  c #683936",
"l  c #733734",
"z  c #3D423C",
"x  c #77461D",
"c  c #675917",
"v  c #7E5919",
"b  c #6B6412",
"n  c #45432C",
"m  c #4F462F",
"M  c #58482D",
"N  c #5B5729",
"B  c #454434",
"V  c #4A4534",
"C  c #42433D",
"Z  c #4A463D",
"A  c #4C4C3C",
"S  c #584734",
"D  c #54433D",
"F  c #534C3B",
"G  c #4E5034",
"H  c #565534",
"J  c #55523D",
"K  c #684A26",
"L  c #685725",
"P  c #765925",
"I  c #68413D",
"U  c #685737",
"Y  c #765A36",
"T  c #6B642B",
"R  c #756129",
"E  c #686137",
"W  c #766439",
"Q  c #3F4341",
"!  c #444642",
"~  c #494743",
"^  c #464944",
"/  c #4A4B45",
"(  c #454949",
")  c #4C4D4A",
"_  c #534C43",
"`  c #564845",
"'  c #594C45",
"]  c #514E4B",
"[  c #4E5246",
"{  c #4E514B",
"}  c #535244",
"|  c #5B5B44",
" . c #52534D",
".. c #5B544C",
"X. c #575848",
"o. c #5C5C4C",
"O. c #4D4F51",
"+. c #4E5251",
"@. c #545552",
"#. c #595652",
"$. c #565954",
"%. c #5A5B55",
"&. c #525658",
"*. c #565A59",
"=. c #5C5D5A",
"-. c #674A47",
";. c #724A46",
":. c #625C43",
">. c #64554C",
",. c #6C5749",
"<. c #645B4C",
"1. c #745A44",
"2. c #664E51",
"3. c #665552",
"4. c #645B54",
"5. c #695D54",
"6. c #625F5B",
"7. c #6A5D59",
"8. c #785B57",
"9. c #5F6146",
"0. c #5F6257",
"q. c #5E615C",
"w. c #696348",
"e. c #6D6B4C",
"r. c #766749",
"t. c #7C6B49",
"y. c #646254",
"u. c #6B6353",
"i. c #696B54",
"p. c #62635D",
"a. c #6A645B",
"s. c #6A6B5D",
"d. c #766857",
"f. c #736B5D",
"g. c #77745C",
"h. c #5C5D61",
"j. c #605F62",
"k. c #5E6261",
"l. c #636562",
"z. c #6A6762",
"x. c #656964",
"c. c #6A6B65",
"v. c #636468",
"b. c #666A69",
"n. c #6B6D6A",
"m. c #746663",
"M. c #726B65",
"N. c #726F6B",
"B. c #6E7261",
"V. c #6D716C",
"C. c #727365",
"Z. c #7C7766",
"A. c #73726D",
"S. c #79756D",
"D. c #6D6E71",
"F. c #706F73",
"G. c #6E7272",
"H. c #6E7178",
"J. c #737573",
"K. c #787773",
"L. c #767975",
"P. c #7A7A75",
"I. c #73757A",
"U. c #767A7A",
"Y. c #7B7C7B",
"T. c #844F10",
"R. c #9F5126",
"E. c #886939",
"W. c #916B32",
"Q. c #A16E39",
"!. c #A47838",
"~. c #864E49",
"^. c #865958",
"/. c #9A5D59",
"(. c #8A6D4D",
"). c #8B784B",
"_. c #977946",
"`. c #84675A",
"'. c #8A7656",
"]. c #886865",
"[. c #8A776C",
"{. c #837E77",
"}. c #AC726C",
"|. c #7E817D",
" X c #CD953F",
".X c #A7864B",
"XX c #B78944",
"oX c #BD954E",
"OX c #A98C59",
"+X c #B98956",
"@X c #BA995D",
"#X c #83837D",
"$X c #888579",
"%X c #9B8774",
"&X c #AE8E6C",
"*X c #BA9966",
"=X c #B8A472",
"-X c #CA9645",
";X c #CC924B",
":X c #D49F5D",
">X c #777B80",
",X c #7C7E82",
"<X c #807F85",
"1X c #7E8284",
"2X c #838583",
"3X c #868887",
"4X c #868A8B",
"5X c #8B8B8A",
"6X c #8E908D",
"7X c #9A978C",
"8X c #8C9093",
"9X c #939592",
"0X c #9A9A95",
"qX c #969999",
"wX c #9B9D9B",
"eX c #A39D8D",
"rX c #A19D94",
"tX c #9EA09C",
"yX c #A2A39A",
"uX c #B8A794",
"iX c #9B9FA0",
"pX c #9DA1A2",
"aX c #A2A4A4",
"sX c #A9AAA6",
"dX c #A6ABAC",
"fX c #AAABAC",
"gX c #B0AEA8",
"hX c #ACB1B3",
"jX c #AEB2BB",
"kX c #B3B5B7",
"lX c #C5A185",
/* pixels */
"l.n.I.D.D.>X>X4X1X,X1X1X,X1X1XY.{.c.A.J.b.c.c.J.{.N.z.a.N.M.6.l.z.z.@.#.N.N.N.N.A.z.K.P.Y.P.K.P.J.K.J.6.Y.c.F.H.<Xv.,Xn.<X2X,X,X",
"I.<XI.H.H.>Xh.) v.O.n.&.+.O.G.@.U.n.J.J.M.%.6.N.N.n.p. .K.N.n.c.b.$.@.%.S.U.S.P.Y.S.P.{.<Xb.%.b.P.J.<X7.u r h 0 2.v.,XD.,XI.,X3X",
"I.,X,XD.h.h.&./ @.8 =.&.) &.v.] l.@.6.v.*.~ #.%.%.%.%.%.K.P.P.N.7.7.7.7.7.f.6.m.m.A.{.2X#X] ) ..P.F.<Xn.2.s D ~ 6.&.J.D.,X,X,X5X",
"v.F.D.h.h.N.%.] *.C N.$.#.h.I.) v.6.l.J.p. .%.x.6.=.a.%.K.P.K.P.7.3.>.4.7...>.7.7.n.A.N.n.n.n.5XK.F.Y.m.j w g 0 -.#.v.6.D.H.,X4X",
"I.Y.Y.N.#.v.@./ $.^ p.) @.*.6./ p.=.n.J.x.@.=.c.z.6.n.8.`.].^.8.6.p.6.n.6.6.6.#.N.M.n.S.D.p.n.P.P.J.,XD.7.D D ` l.%.D.v.I.<X8X4X",
",XH.=.F.l.K.6.] 6. .n.[ #.=.n.@.J.J.2X<XS.#.p.=.6.6.N.2.-.;.;.-.z. .#.#.6.@.#.@.6.#.N.%.x.x.b.Y.K.I.<Xm.g g k g 2.l.N.D.Y.j.I.2X",
",Xv.h.l.c.N.=.! *./ p.C ! ^ n.] A.K.3XJ.c.n.q.c.z.p.J.D.P.K.K.P.J.l.6.*.6.=.$.6.l.=.M.6.l.c.G.c.z.J.,Xn.#.` ~ O.F.v.J.n.n.%.l.<X",
"d 8 4 5 * % , 2 5 > 1 6 8 8 8 6 5 6 ~ 8 7 2 5 z 7 2 d C 7 d 8 O.O.8 5 d 4 , 8 2 8 , d 2 , > 5 , - 4 4 , , : : 5 5 8 * ; 5 5 5 a ",
"m @.^ $.*.%.C /  .$.%.%.$.l.$.$.l.J.U.G.D.k.v.V.p.y.Y o. .n.=.n.j.#.( @.)  . .~ p.%.p.6.*.&.$.=.S  .) ) ~ / ! j.j.&.&.! ~ / / J ",
"m ] ^  .6.c.q.q.x.=.p.q.=.p.$.b.b.*.*.&.&.) ) { C _ M A Z &.+.{ &.&.=.6.%.x.l./ b.7 2 2 1 5 8 V.1.~ ( ! %./ ] j.h.v.z./ ^ ^ ~ J ",
"V ^ 8 ) @.0.$.p.q.$. .=.p.=.q.G.! k.o @ o   X X . o X     o X o # , =.n.x.%.c. .p.C * o o ; ( V.1.a._ s #.6.z.l.H.j.v./ / / C | ",
"B ! C +. .%.$.p.b.p.$./ y. .p.^ , k.v.D.x. .$.%.$.[ N G F @.@.@.$.) $.p.b.@.b.*.*.! *.l.0.{ z c.1._ D e p @.P.6.n.h.x.! ^ ~ ~ | ",
"n ^ / @.$.p.@.p.b. .*.O.u.#.C : C k.x.J.p.$. .0. . .H G } @.+.{ @./ $.%.x.@.c.l.=.z $.x.p. .z c.w.7 A y e D p.b.V.v.p.C ^ C ~ :.",
"n ^ C +.{ q.$.q.V.@.p.@.,.F @.( ) q.a.A.p. .{ %.%. .H J i.b.b.l.$.( @.%.l.@.v.b.#.C $.b.p.{ C V.r.C 2 t x e V #.c.q.p.~ ~ C Z <.",
"B ^ 8 &.{ =.v.c.$.*.J.l.S <.=.{ ] l.u.S.x. .$.q.0.$.N | 9.k.q.c.q.{ $.$.k.&.v.q.%.C $.c.x. .( V.t.A 2 , i x p _ p.*.p.C / C C y.",
"V  .) &.@.n.q.V.*.n.F.C i z.q.{ #.c.u.A.x.o.q.q.q.0.E  .X.b.0.V.k.{ @.q.=.*.x.v.=.C q.V.c. .( c.t./ ^ < > S 1.V 4.k.p.^ A ~ / o.",
"A *.) k.&.G.=.L.0.V.$.: s A.k.{ 0.k.a.S.x.#.%.p.p.%.| $.G %.@.c.q.+.$.%.p.$.x.$.q.Q q.V.n.$.( b.d.^ =.N > > ..a.z.x.%./ /  .A X.",
"^ [ ! *.@.v.$.V.x.^ , z B G.k.) { k.*.b.=. .=.$.p.#.9.$.A q.@.V.q. . .#.k.&.b.=.%.^ =.x.N.@.! >.e.^ %.L c 2 2 @.p.q.o.^ )  .) $.",
"A ^ z k.+.b.%.G.z : +.0.s L.k.*.@.0.*.b.k.{ q.p.q.$.| $.A l.@.{ { { @.*.=. .l.@.p.! k.n.c.] i U w.^ *.L b X.2 1 @.c.4.^ / C 8 $.",
"( { { $.$.l.$.q.; z b.@.s K.x./ { 0.=.q.q./ %.q.0.$.X. .J [ @.x.k.( [ @.q. .l. .p.z k.V.c.} m H w.^ ..c b i.0.1 7 c.../ /  .^  .",
"/ ) (  .*.x.$.$.! %.V.@.B V.k.+.@.%.#.x.k.^ @.{ =.o.} $.| x.V.c.l.[ [  .%. .l.$.p.^ k.c.0.m n i U Q $.c b y.V.$./ N.%.^ Z ) / ) ",
"^ ^ 7 $.*.G.%.$.) %.U.q.7 V.k.{ q.#.x.V.V.@.8 ! C z 3 z B ^ / C z ^ )  .$.@.V.%.c.^ b.V.w.V z H J Q $.c b s.L.q./ A.z. .) / C  .",
"^ @.[ @.*.b.%.$./ q.L.q.7 V.k.{ q.$.b.H.G.#X5X1XA./ /  ./ %.| p y Z [ @.0.{ V.$.x.z l.V.c.[ z B.0.z @.c b E |.c.) L.=. .] $./  .",
"~ { ) @.*.x.$.$.{ q.V.$.7 V.k.( q.=.b.n.*.0XyXqXA.X.9.q.q.s.s.U T.}  .$.0.@.c.$.q.^ q.V.p.{ n B.0.z @.T N e.L.0.{ J.p.) /  .^  .",
") { ^  .$.G.@. .[ p.pXqXA V.k.1X8X$.qXhXJ.%.x.x.@.$X%X3X0.0.s.U T.{ {  .q. .l. .q.z k.V.0.@.C A.%.z  .Y N e.V.0.) n.p. ./ *.) ) ",
") / d @.@.x.@.{ ) @.k.yX3Xn.|.hXdX8XpXjXwX#.) [ c.$X%X( q.s.V.W v { /  .0. .x.$.s.z k.b.0.{ z b.| C $.W T t.f.$./ J.=. .) ] /  .",
"( @.^ @.*.x.@.@.[  .z @.$.x.n.*.q.@.x.G.x. .8.8.$.X.A 8 0.q.V.U P / /  .p. .p.=.q.z q.b.l.$.z G.9.z #.W N P 1.%.C z.a.( ) &.k. .",
"~ +.^ @.@.V.@.@.{  .C $.$.@.q.c.b.$.k.V.c.! l k #.y.A z $.p.V.Y R / { @.p. .p.%.k.z $.G.l.@.z x.9.z #.P c P w.q.Z z.u. ./ ) $.{ ",
"/ / 8 #.@.b.@.0.{ [ C  .$.[ &.@.o . 4 J.V.x.;.,.x.0.} z %.l.n.W R )  .@.p.@.c.p.x.z @.G.p.$.Q v.o.z $.P c W f.p.Z S.5. ./ ] ] @.",
"^ @.^ #.@.b.@.{ ( { ( [ @.c.] =.9 r 4 U.q./ z 7 / 0.$.z q.x.b.W R ^ ) =.@.{ p.0.p.z $.G.l.*.z k.:.8 *.W 9.e.s.=.~ A.<.~ C ) )  .",
"^ @.! $. .n.$.*./ c.|.L. .c...=.r h 6 U.*.* X X 2 p.$.z J.1X4X(.Q.$.) $.[ {  .{ p.z x.U.V.=.z b.| 7 =.t.g.e.s. .~ M.6.) ^ { &. .",
"^ / ^ #.@.G.$.=.^ q.b.l.*.K.@.b.% h 6 |.0.^ { C z p. .p.pXpXdX+X;X7X[ $./ @.[  .c.l.dXsXyX7Xq.n.y.*.9X@X*X=XeXyXz.c.$.) A +.@.) ",
"/ ( ^ q.@.V.l.q.> 5 o 5 b.|.3.n.w h 6 |.q.{ b.$.z c.$.x.2X4XK.(.).Y. ./ X X X ; n.z.2X3X2XJ.n.G.u.n.#X).'.$X$XP.S.V.x./ ) / &.@.",
" .p. .z.q.L.x.q./ ! / p.2X8X=.G.1 u z 1Xx.$.Y.k.C L.p.@.v.h.*.J :.=.$.c.F *._ p.K.@.x.l.c.*.=.U.g. .p.N J $.x.p.k.V.a.)  .*.b.=.",
"@.l.*.n.q.U.c.k.@.=.) x.U.V.z.=.2 u z 1Xl.%.L.q.^ A.q.z ; : ; % = 1 $.A.i.S.u.P.P.C : # ; : C Y.f.C 2 - = > < 2 ^ V.x.)  .v.b.6.",
" ./ C n.0.L.l.l.%.n./ c.m.j q 9 u g z |.b.@.|.x.^ x.k.Q k.v.2.Y W { *.P.s.S.s.P.{.C *.v.v.*.C |.Z.C l.g.t.S.%Xn.A H.x.[ ..=.*.$.",
"] @.O.c.l.V.l.z.P.{.+.n.c.& $ $ $ < 8 J.q.{ L.x.A c.q.l.iXjXfX*X*X3X#.A.*.s.y.y.C.} qXaXwXyX[ L.g./ dX&X*XeXuX0X@.V.z. ...] =.@.",
") *.@.l.0.n.x.P.0X5X3Xl.a.r w w 0 u 7 A.0.{ L.V.z c.x.aXsXhXdX:X=XsXc.A./ 3 6 p.s.3XsXfXfXfX3XU.C.{.pX*X=XrXuXuXqXb.4. .>...=.] ",
") O.! j.q.n.c.Y.#X2X3Xn.x.p.$.$.=.f.0.V.$.@.|.V.C c.V.P.U.2XU.).'.|.A.n.p.i.s.p.p.6X5XqXqXwX0XP.g.wXrX;X@X7XuXsXaXJ.x. .>.3.*.] ",
"( ( 8 6.@.b.l.G.A.l.n.M.1X9X#X4X3X6X1Xb.@.{ C.p.C p.c.x.q.v.$.W y.q.z.n.%.a.p...p.p.p.x.l.p.p.J.g.x.x.E.T w.(.y.c.z.p. .4.#.&.{ ",
"( ~ Q n.5X5X<X3XU.U.J.P.5X3XL.|.Y.|.|.|.@.( V.p.8 y.x.x.q.q.*.W p.p.x.p.o.5. .7 ~ x.n.J.n.c.=.p.s.0.q.E.L | r.4.a.S.S.S.' ' $.) ",
"! ( ) &.n.F.J.b.l.l.6.p.V.q.{ @.@.@.$.k.[ ^ l.x.8 =.p.p.p.q.$.w.q.p.p.p.=.4.<.7 a C ) ) ) ] *.A.l.$.0.R L <.d.5.p.f.a.p.'  .$./ ",
"! Q 8 #.n.l.v.*.{ *./ $.*.@.*.x.z.c.l.q.[ -.[.].8 0.p.x.q.l.q.s.z.z.p.p.#.*.y. .@.p.A.V.V.c.A. .$.{  .U } $.1...%.s.a.M.' ` O.( ",
"~ ) O.*.G.@.n.n.=.l.%.p.p.=.@.q.=. .b.q.{ f -.I B p.p.z.x.b.p.c.x.c.c.p.=.o.$. .y.{ ! { ^ / C =.p.x.p.W 9.0.a.a.p.z.l.N._ #.*./ ",
"^ &.O.$.n. .=.*.) O.] )  .@./ x.l.%.v.k. .' m.d.7 =. .O @ @ O o + @  .c.l. . .a.p.: @ @ @ @ > =.x.[ @.U F )  . . .=. .z.] @.*.@.",
"^ ) / *.D.*.$.*./ ( ^ ) @.{ $.x.q.p.l.=.@.f -.k a %. .7 o o o O o 6 ! / { ^ / ~ / 8 = o + ; 7 p.x.{ > M W.P O % P  ./ V.)  .*.) ",
"! 8 5 #.N.@.%.%.)  ./ @.@.{ ) c.l.p.6.*. .` m.7.7 =.@.z p.%.o.%.$.2 @ o o o o o O >  .=.$./ 8 =.p. .Y -X-Xt - XX Xu.) z.) Q z { ",
"~ ( ~ O.n.b.b.v.l.+.[  .l.q.V.c.x.x.l.6. .f -.k a 0.$.8 p.=.L e.*./ ^ ! z 8 z B t 2 *.#.$./ 6 0.b. ._.-Xi ; XX-X!.@.) V./ &.+.{ ",
"( ~ 8 O.v.m.D.b.v.@.v.p.%.=.@. .$.C x.=. .) A.l.z 0.#.z p.0.e.C.y.J.w.g.A.p.c.u.r.A x.x.n.` 7 p.n.] u.' d _ '.r.! =.] F.] ! &.] ",
") ! 5 &.v.F.F.J.b.#.#.) %.l.O.p.[ ^ =.=. .) p.p.8 %.$.z k.b.g.B.K C.e.Z.V.=.c.M.W | z.n.V./ 3  .p.] =.0.%.#.z.x.n.l.] j./ d &./ ",
"~ ! 7 ] 8.^.^.].n.*.%.%.=.n.=.@.q.{ b.$. .;.}.}.d o.$.z c.V.g.C.r.z.W Z.x.=.S.N.g.4.J.G.U./ a ..z.) p.p.x.a.n.c.m.l ;.8.) ! *.) ",
"( ! 8 @.s D f ~ n.=.h.#.=.b.c.c.c./ c.=. .8  . .8 %. .z l.V.B.x.7.6.W f.p. .a.%.<.:.A.A.P.P.C o.c.) x.x.x.z.c.x. .e D p ) C $. .",
"( ~ 6 O.l /./.;.x.G y.A %.>.@.p.q./ V.0./ U.J.*.8  .@.7 =.k.x.p.l.l.r.c.q.6.l.6.a.a.Y.6X6XrX0X=.x.^ =.=.c.c.A.n.3.~./.l [ 8 { ^ ",
") C 6 O.8 , : &.V.[ p.~ ..<.*.p.l.@.x.%.V.dXdX9X7  .) 7 *.q.q.q.=.l.w.c.l.l.6.p.A.5XwXaXeXP.=.6.x./ p.p.p.c.n.z.*.; * 8 @.7 { @.",
"/ C 6 Q v.n.b.b.x./ q.^ ] | =.b.l.q.c.0.Y.pXkXfXx. .{ l.pXpXaXdXtXwXOXeX9X0X0XrX0XsXaX#Xy.y.U =.b./ x.p.x.p.l.c.c.c.) @.) 8 { @.",
"O.~ 6 ( v.l.v.6.b./ $.^ ' F $.=.%.$.q.@.%.*.0.6X9X#.U.hXhXhXkXkXjXkXlXgXgXgXsXkX7X{.C.w.H w.w.%.c.^ 6.x.p.6.p.x.x.c.) U.&.@. . .",
"~ =.*.! ; = ; = = 2 > , - = = ; = : ; = 2 1 2 1 1 1 1 8 7 8 8 8 d 8 f C 8 8 8 8 < 2 2 2 1 > > > 2 > = - - = = = ; : 2 6 v.K.J./ ",
"&.9X6X5X5X3X2X2X#X|.2X#X(.R.P.#X#X2X2X#X#X2X2X#X|.|.2X1X|.|.2X1X,X2X'.[.{.1X2X#XZ.{.2X2XP.A.S.S.2X{.`.E.(.$X#X#X2X3X2X0XpXwXwX/ ",
"v.#.5 d 2 ! *.] ) ] O./ V F / @.&.{  . .{ +.) ) p.p.b.c.l.b.v.c.v.n.r.f.l.p.c.p.A '  .{ [ ^ Z ~ ) / B F A ^ $. .$.$.! 5 ^ 8 n.x.",
"l.j.6.l.7.j.*. .W W.- @ W.!.P # - W.W t . K Q.e.l.x.x.k.k.$.v.*.l.$.u.%.x.=.c.x.<.Q.W.* t E.XXN ; U Y _.- @ !.!.d.k.x.6.V.p.Y.z.",
"l.v.< ..< ..%.n.Z.K ; !.:X-X< p ).oXY @ L :X*XN.x.{ / / / C [ ! ] 7 Z 8 ~ C ) %.a.f.< p .XXXE.< E.;X).3 O _.-X[.K.c.#.i p.p Y.n.",
"l.m.q 2.q -.$.J.6.6.U -XXXi < .X_.E.; p oX*XA.n.[ @ : : : ; : 5 6 5 6 2 > 5 > 2 y.c.b.(.).r.8 ' OXOX~ 7 r..X'.G.b.*.2.q 8.q P.c.",
"l.N.2.7.2.6.#.) l.n.J.A.c.P.P.S.N.n.l.J.P.K.A.#.% ~ n.Y.z.J.U.5XY.2XJ.A.b.P.%.7 ) z.A.P.V.z.M.N.2XU.Y.P.Y.A.U.z.] =.a.>.m.5.A.#.",
"7 / ~ / ^ 8 ^ @./ ~ 7 a 7 C C z 7 2 8 a 8 a Z 2 X > 2 7 3 2 < 7 2 5 2 < 2 2 5 2 o 2 7 7 2 2 6 6 ~ C ^ B d d d 8 B C Z  .) / / C "
};
