/* XPM */
static char *result[] = {
/* columns rows colors chars-per-pixel */
"64 64 194 2 ",
"   c black",
".  c #1B1714",
"X  c #341B0A",
"o  c #221A15",
"O  c #2B230F",
"+  c #3E210C",
"@  c #2D2410",
"#  c #24221F",
"$  c #322712",
"%  c #342B13",
"&  c #3C2E16",
"*  c #31261F",
"=  c #332C1D",
"-  c #3F3117",
";  c #36301E",
":  c #3B311F",
">  c #332720",
",  c #372E27",
"<  c #3C2F27",
"1  c #3A3325",
"2  c #35312D",
"3  c #3D362C",
"4  c #3F3B34",
"5  c #3B3731",
"6  c #2C2827",
"7  c #451C0A",
"8  c #441507",
"9  c #581717",
"0  c #671113",
"q  c #7B1214",
"w  c #771214",
"e  c #47220D",
"r  c #402511",
"t  c #402F17",
"y  c #4D2F17",
"u  c #46231D",
"i  c #422F18",
"p  c #552E19",
"a  c #413017",
"s  c #443219",
"d  c #4A361B",
"f  c #4E391C",
"g  c #52351B",
"h  c #5C351C",
"j  c #533C1E",
"k  c #5C3C1D",
"l  c #583417",
"z  c #662310",
"x  c #6C2B15",
"c  c #653D1D",
"v  c #452720",
"b  c #4B2D25",
"n  c #582923",
"m  c #443523",
"M  c #4C3A23",
"N  c #43352A",
"B  c #43392B",
"V  c #4C3D2C",
"C  c #563E20",
"Z  c #5A3E21",
"A  c #523E2B",
"S  c #433C33",
"D  c #423F39",
"F  c #483B39",
"G  c #493B35",
"H  c #523D32",
"J  c #603720",
"K  c #613C22",
"L  c #693E26",
"P  c #713A2B",
"I  c #67411F",
"U  c #6F431E",
"Y  c #564020",
"T  c #5C4122",
"R  c #5C442C",
"E  c #53422C",
"W  c #4C4034",
"Q  c #494138",
"!  c #534534",
"~  c #5C4733",
"^  c #5B4836",
"/  c #54463A",
"(  c #5F4A38",
")  c #634424",
"_  c #694626",
"`  c #6C4827",
"'  c #64462D",
"]  c #6C4728",
"[  c #6E4928",
"{  c #754B26",
"}  c #734C2A",
"|  c #794E2C",
" . c #774627",
".. c #7C512D",
"X. c #614031",
"o. c #694434",
"O. c #664A33",
"+. c #634B39",
"@. c #6D4935",
"#. c #704E33",
"$. c #6C503D",
"%. c #74543D",
"&. c #7C5639",
"*. c #4A4744",
"=. c #4D4946",
"-. c #4F4F4E",
";. c #564E45",
":. c #514D49",
">. c #515151",
",. c #5B5A58",
"<. c #6C5343",
"1. c #66564B",
"2. c #6E5F53",
"3. c #765F51",
"4. c #7B6049",
"5. c #6C635B",
"6. c #65605B",
"7. c #7D6A56",
"8. c #686765",
"9. c #6B6A69",
"0. c #676665",
"q. c #746A63",
"w. c #726E6B",
"e. c #7A6D66",
"r. c #73716E",
"t. c #757474",
"y. c #7A7672",
"u. c #7F7873",
"i. c #7C7C7C",
"p. c #834F2D",
"a. c #8B4E2F",
"s. c #81532D",
"d. c #89562A",
"f. c #8A5A2E",
"g. c #905D2D",
"h. c #835531",
"j. c #895733",
"k. c #875833",
"l. c #8B5A35",
"z. c #815838",
"x. c #905730",
"c. c #925D36",
"v. c #935F38",
"b. c #9A5D34",
"n. c #A75D36",
"m. c #966239",
"M. c #9A623B",
"N. c #976633",
"B. c #A3673D",
"V. c #A2683E",
"C. c #A3703C",
"Z. c #865F4E",
"A. c #A75441",
"S. c #8D6144",
"D. c #846A55",
"F. c #9A6355",
"G. c #89715F",
"H. c #94705D",
"J. c #AE6F43",
"K. c #AC7344",
"L. c #A87948",
"P. c #A67443",
"I. c #B17B49",
"U. c #877567",
"Y. c #9B7B6B",
"T. c #837B74",
"R. c #8E7C72",
"E. c #C37461",
"W. c #83817F",
"Q. c #93837B",
"!. c #A4816D",
"~. c #858483",
"^. c #888480",
"/. c #8B8B8A",
"(. c #8F8A86",
"). c #9A8E87",
"_. c #959595",
"`. c #989794",
"'. c #9B9B9B",
"]. c #A4948D",
"[. c #AD9F98",
"{. c #A39B97",
"}. c #A3A19F",
"|. c #ADA19C",
" X c #A2A1A1",
".X c #AAA8A7",
"XX c #ADAEAE",
"oX c #AAA4A1",
"OX c #B0AFAF",
"+X c #B4AAA5",
"@X c #B4B0AC",
"#X c #B5B4B3",
"$X c #BDBDBC",
"%X c #CECECE",
/* pixels */
"                      ! Z K K K _ } [ K C S                                                                                     ",
"                  +.T ) } } ..| ....| } ] L /                                                                                   ",
"                ' k ) ..d.f.k.l.m.v.l.s.| } Z R                                                                                 ",
"                _ _ } { { | { s.C.I.K.m.c.j.L Z +.                                                                              ",
"                c U  .c I U { f.K.L.P.K.J.l.] _ _                                                                               ",
"                Z { s.d.d.d.f.f.) l c V.J.l.} ] ] } H                                                                           ",
"                v e c c c h e 7  .8 7 ` j.| h.| [ [ } { *                       9.t.                                            ",
"                @.F.P l c 7 z n.E.x l | | _ [ ) ) ] } } } } H                   i./.                                            ",
"                N x.n.c.c.s.p.a.n.B.c.| ) ) } [ ) Y K _ | | | ..| @.+.+.* 1     '..Xt.                                          ",
"                  o. .g.N.g.d. .p.M.l.{ j { | | } ) Z ) _ } h.c.j.h.....} } (.`.OX#X'.,.                                        ",
"                  F g <.G.U.D.' l  .| ) j ) } ....} _ Z C Z _ } ..l.M.m.l.h.Q. X%X%X#Xt.                                        ",
"                    F n b u u 9 y  .{ ) g f Z ) [ | } _ ) Z Z ] ..h.s.k.l.h.h.z.oX}.~.1./                                       ",
"                      0 w w q 0 p ] L g d d j j ) ` ) Y Z  .h.B.m.l.j.l.l.l.k.h.| } T Y Y /                                     ",
"                      o.H.Y.Y.S.J Z r X i s s d j C T [ j.c.J.S.m.l.h.h...| ..} [ _ T Y j Y /                                   ",
"                      H n Z Z Z h + X g k d i s d ) [ h.v.P.M.v.c.h...} ) ) ) ) ) ) j Y Y f [ } o     t.'.9.                    ",
"                      H Z L L x h y _ } } g d i d T } l.c.c.l.k.z...} _ T Z k Y j Z j j f s l.m.R..X#XOX~.                      ",
"                        6 N d g _ | h.v.l.} C s f K h.S.].|.&.} } [ _ Y j d s d d f f f d i l.P.!.+X{.T.y.                      ",
"                    9.w.y.T } [ R.z.l.l.h...Z f j Z } Q..X$X7.) _ ) ) Z j s & & & & d d f C l.v.k.} ) Y !                       ",
"                  ,./. X$XD._ U.#X[.| } } T j f & % - d j j j T C C T _ Z & % % $ % s C Z } ....} _ Y Y C 3                     ",
"                          ) T _ [ _ T C Y C s & & t s d d f j j Y T _ T d t & % $ $ - d Z Z ` [ ) Y C f d C !                   ",
"                          f j Z Y j f g f f & % % & & s f C Z Z Z j s d d f d s i & % & s C Y ) T C M s s f j f                 ",
"                          d d f f j _ _ C d t & & & & % - - - & & s d d j Y Y Y j s & & B a s f f f d i a s d d d S             ",
"                          j j j Z j j d i & t s d j s - & & & & s f d f Y T T Y Y j i & *.=.Q m i s d i t s s s s d d           ",
"                          Y T ) ) C f i & & i d M g s & % & - - i s s d Y Y Y T Y j s - 4 >.>.>.Q d d g k C j s d s s d         ",
"                          T T ) ) T f t % & & s s s & & & - i s s s - i d f Y Y Y j d - 1 >.>.>.;.Z ) [ ] _ Y j s s s d ~./.i.  ",
"                          j Y T T j d a & % m ;.& t s & - & & s s - - & & i d j f f s d a >.>.>.1.....j...} ) k s & s 5._._.t.  ",
"A                       ! ) ) T j d d s - % i._.Q s - s & % & t - i i & % & s d d s - s d =.>.>.<.h.l.l...` T d & &   i.t.      ",
"Z                     ' } } _ ) d s d d a G       ! f C f s i t d C C s - % & i - d d d f M W &.h.l.l.} ) C f s f !             ",
"_                 E T ..h.| ] T d j T Z 3           M f j d s % - d Y Y d & s d d f Y Y j j f k.l.h.} ) j d s &                 ",
"2.              / Y ` s.k.} Z C ) } O.                s & & % % - s f f C C C C Y Y Y Y ) v.v.l.} [ ) d B                       ",
"                / ) ....} ) Y ) ) ~                   & & d j Z Y T Y Y Y j f d d d Y } l.....h._ ) d S                         ",
"                ) { | ) Y C C f ,                   Q i d f f j j Y j j Y j j M d d Y k.l...h.} ) Y s                           ",
"      ^ ! E ~ ` } ) j s 4 Q Q                     d d j Z j j s d f f j j j Y Y j j j _ ` Y _ _ C f d                           ",
"    $.) T ) ) _ [ Y s 4                         A j T ' _ T f s d s s s f j Y ) T Y j f d - d f d i V                           ",
"  ..} _ Z j f j _ d &                           ) _ ..h...[ T f s t & & - f T [ ) ) g d - i s f d d                             ",
"  | ..} ) Y s d j - ;                           ) | h.l.h.| ) d s t % % & f _ | [ _ C d s d C j d d                             ",
"  S j T T j d s - 1 #                       ^ R _ h.m.m.h...) j s & % % & Y [ ..| } ) j d f Y f s V                             ",
"      . m % % 1                             T ) ..c.v.c.h.| ` C d & % % - _ ..k.h.| T j f j j s S                               ",
"                                            ) _ h.j.c.l.| } T j d - % % s } ..l.h.| ) j f Z k s G                               ",
"                                            ) } h.j.h.h.} _ Z d - - % % s ..h.h.| } j f j T j a #                               ",
"                                          / _ | h.h.| } _ T j i - & % 1 ~ } | | ` ) f f j C j -                                 ",
"                                          ^ [ | ..| } _ T C d & & % 4 >.( _ _ _ T j d j Z j d N                                 ",
"                                          R ) } } [ _ ) Y j s - % % >.>.^ Y I T j j f Y T d t                                   ",
"                                          j Z ) [ _ T j j d i & 1 *.>.>.! f f j s s f Y C & %                                   ",
"                                          f Z ) ) _ C f s t a t *.>.>.>.Q d s s a a f j f % @                                   ",
"                                          d j Z T Z f t t d s t *.>.>.>.4 % % - & a s d a O O S                                 ",
"                                          d j C j d & % i s f j E :.>.>.4 % % % % % & % % O $ Z _ _ /                           ",
"                                          f j C Z j & & s d j j Y E ! :.4 $ W.$X}.y.% % O O $ j T T )                           ",
"                                          j T.@XW.q.- - & s d d f f T ' 4.#X$X'.9.,.O O O O $ - d d j j ~                       ",
"                                        8.(.$X$X~.6.- - $ t d s s j ) %.).XX/.8.S 1 O O O O @ % & a d f f !                     ",
"                                        i.'.~.t.# 1 & $ & & & & t d C 5.u.q.q.        = @ O O @ $ $ % i a m #                   ",
"                                        t.9.        S 3 & $ $ % & t s s C ) [         # % @ O O O O O % $ % & Q                 ",
"                                                          S s & & % % & s d C R             4 = O O O O @ % $ - 3               ",
"                                                              V s & % % % - d f                 S O O O O O O & j @.$.          ",
"                                                                . s s & % % & a                   O O O O O @ - f ) +.          ",
"                                                                  ! f s & & % & t #               O @ % % % & s V               ",
"                                                                  ! f f f d s s - -             5 O % % % % s f !               ",
"                                                                  R Z _ _ Z f d % % M         = % % % & s f C 3                 ",
"                                                            > <.#.) _ } ' T f s % :       W._.: % = r.~._ O.                    ",
"                                                          ' } ) C C _ _ ) C - 1 #           0.        i.<.                      ",
"                                                      e.3.Z % % % 2 5.T ) d -                                                   ",
"                                                      t.~.3 3 3 2   (.w.V S                                                     ",
"                                                                                                                                ",
"                                                                                                                                "
};
