/* XPM */
static char *result[] = {
/* columns rows colors chars-per-pixel */
"64 64 185 2 ",
"   c black",
".  c #1A1714",
"X  c #2B1708",
"o  c #3C1708",
"O  c #341B0B",
"+  c #3B1B0B",
"@  c #221C1A",
"#  c #3F1F18",
"$  c #2C230F",
"%  c #31230E",
"&  c #38210E",
"*  c #2E2510",
"=  c #26221F",
"-  c #322611",
";  c #342A13",
":  c #3C2D16",
">  c #3F2119",
",  c #332A1E",
"<  c #3E3017",
"1  c #36301E",
"2  c #3C311C",
"3  c #222120",
"4  c #2A2927",
"5  c #332A25",
"6  c #3A3326",
"7  c #37332B",
"8  c #3D362C",
"9  c #3E382D",
"0  c #3D3731",
"q  c #3F3A32",
"w  c #3F3F3F",
"e  c #461A0C",
"r  c #4A1C16",
"t  c #541F1B",
"y  c #44210E",
"u  c #492512",
"i  c #412F17",
"p  c #4C2A16",
"a  c #412F18",
"s  c #5E2315",
"d  c #522C17",
"f  c #502E18",
"g  c #423117",
"h  c #443219",
"j  c #4A361B",
"k  c #4E391C",
"l  c #523116",
"z  c #53341B",
"x  c #5A331C",
"c  c #533C1E",
"v  c #583D1F",
"b  c #683C1F",
"n  c #433421",
"m  c #4C3A21",
"M  c #433728",
"N  c #45392C",
"B  c #4B3D2C",
"V  c #533222",
"C  c #563E20",
"Z  c #5A3E21",
"A  c #5F3F29",
"S  c #423731",
"D  c #443C34",
"F  c #493E34",
"G  c #633B22",
"H  c #6A3F21",
"J  c #6E332E",
"K  c #7A3425",
"L  c #554123",
"P  c #5C4122",
"I  c #54432C",
"U  c #5A432B",
"Y  c #4E4134",
"T  c #474038",
"R  c #4D4339",
"E  c #534434",
"W  c #5B4335",
"Q  c #54463A",
"!  c #574839",
"~  c #5E4C38",
"^  c #634324",
"/  c #6A4626",
"(  c #6C4827",
")  c #63442C",
"_  c #6F4428",
"`  c #67482C",
"'  c #6E4928",
"]  c #704627",
"[  c #764927",
"{  c #7D4F26",
"}  c #744629",
"|  c #734C2A",
" . c #794E2C",
".. c #7D512E",
"X. c #6D4C31",
"o. c #684836",
"O. c #634A39",
"+. c #6C4E3C",
"@. c #6D503B",
"#. c #7D5230",
"$. c #464646",
"%. c #4D4A47",
"&. c #585857",
"*. c #645046",
"=. c #6D5444",
"-. c #6B5549",
";. c #745643",
":. c #7A5A45",
">. c #6C6156",
",. c #6F675F",
"<. c #786658",
"1. c #72685D",
"2. c #646464",
"3. c #696767",
"4. c #6C6B6B",
"5. c #786C64",
"6. c #746E6A",
"7. c #737373",
"8. c #7D7875",
"9. c #853D38",
"0. c #824D2D",
"q. c #83532E",
"w. c #89552F",
"e. c #8A5B2C",
"r. c #864E30",
"t. c #835531",
"y. c #8A5331",
"u. c #875A37",
"i. c #8C5A35",
"p. c #815639",
"a. c #845B3F",
"s. c #8C5D39",
"d. c #915C34",
"f. c #935E38",
"g. c #956233",
"h. c #9B6232",
"j. c #966139",
"k. c #9B633B",
"l. c #9E6A3E",
"z. c #A0673E",
"x. c #984C46",
"c. c #866147",
"v. c #80644E",
"b. c #8E674F",
"n. c #936644",
"m. c #816351",
"M. c #9C6456",
"N. c #8A715F",
"B. c #94735B",
"V. c #A96E42",
"C. c #8A7368",
"Z. c #967C65",
"A. c #927C6C",
"S. c #857E77",
"D. c #817E7B",
"F. c #908178",
"G. c #848484",
"H. c #898684",
"J. c #8B8B8B",
"K. c #928983",
"L. c #9A8B83",
"P. c #998F8A",
"I. c #99928C",
"U. c #929292",
"Y. c #999693",
"T. c #9A9997",
"R. c #9A9A9A",
"E. c #A39087",
"W. c #A39E9A",
"Q. c #A9A29E",
"!. c #A7A6A6",
"~. c #ABABAA",
"^. c #B0AEAC",
"/. c #B3B3B3",
"(. c #B8B7B5",
"). c gray73",
"_. c #C2B5AF",
"`. c #C2BBB6",
"'. c #C2BEBB",
"]. c #CAC3BE",
"[. c #C5C4C3",
"{. c #CACACA",
"}. c #D1D0CF",
"|. c #D2D2D1",
" X c #E3E3E4",
/* pixels */
"                                                      W G G Z ^ } ] _ ^ ^ ^ !                                                   ",
"                                                      C /  .t.y.d.d.d.w.0.[ ^ W                                                 ",
"                                                  5 Z ]  .t.w.g.h.h.h.w.t.#. .| A                                               ",
"                                                  )  .j.g.q.[ 0.w.w.0.{ t.j.z.f.| 8                                             ",
"                                                   .p.l.k.t.[ H G H H ] u.l.V.k.t.O.                                            ",
"                                                  Z z f Z ^ ] ] } } _ _ Z x z Z j W                                             ",
"                                                  C a X e o y d x x u o o o + m h W                                             ",
"                                                  G Z r 9.M.s e d u e K M.K u Z z S                                             ",
"                                                  +./ | 0.r.r.t.q.d.[ y.y.0.#.Z o.                                              ",
"                                                =.) z l G } H { e.g.q.] } ] H j v =.                            7.J.U.G.        ",
"        3.4.&.                              :.u...^ h : Z x f m.A.A.N.o.p _ h p P i.i.u.p.-.@             4.H.!.'.!.7.          ",
"        7.G.U.U.G.7.            5 -.;.;.a.s.i.i. .v h ; > x r t # # r t p l : c ( #.t.i.f.f.f.c.:.-.4.7.U./.[.`.K.3.            ",
"            7.~.{.|.[.).!.5.*.p.d.f.z.l.k.s.q.' v j h : - b u 9.x.x.9.J d f : c ^ ^  .t.f.f.l.f.k.j.n.I.[.].Q.H.                ",
"                w U.{. X X^.y.d.k.z.k.f.i...^ v k j a : % x V v.Z.Z.B.=.f a i C c v P ^ r.f.s.k.z.k.f.c.5.8.7.2.                ",
"                    7.G.[.L. .t.d.f.j.l.g.t.| ^ c j h i % l x b G G G G d : a z c C /  .u.f.z.z.j.f.i.t.t. . .@.                ",
"                        / ( ' | q.s.j.j.d.u...| ^ c z p : % > d Z G d d a : j h Z | t.t.d.k.k.f.f.i.t... .| ' O.                ",
"                        ^ ^ ^ ^ | t.i.i.i.t...| ' P Z j a % % % & + % % % g h Z ^  .i.d.f.f.f.d.i.t. .| | / ^ U                 ",
"                      Y c c c c ^ | | .. . .C.L.:.^ ^ c h : % $ $ $ $ - : h c ^ | t.b.E._.B.i.p. .' / Z ^ P Z c ~ (.T.G.4.      ",
"        3.4.J.R.!./.m h j h a : j P ^ ^ ^ =.6.H.>.C c c c z g % $ $ - - ; k C |  .t.C.P.^.C. .| ^ Z j j C c c j j W.Y.S.7.      ",
"        7.8.!.(.[.}.I j j : ; ; : h z P P Z v j h c c k j j j ; $ $ % ; h k P | |  .| ( a Z ^ P c j h g h h h j j h j h         ",
"          E L c Z P C C j < * * * ; < j k c k h h m L c k h < : - $ ; : h c C P G ^ ^ Z a j k j g < ; ; - < g g g i < ;         ",
"          Q c P ^ Z k j g - * * $ $ - ; : g h g g C c P C j < ; ; ; ; ; h j c k c P c h a < < : ; ; * * : h j j j j j : ; 9     ",
"          E c c C j < : - * * * - h g : : : i < g g h h < ; ; ; ; ; ; ; ; < g g h j g a < < < < g : * * g j C L P C c h : ;     ",
"        I c k h a ; * * * * - : M D   M : : a h j k C C k j < : ; h < ; < g C C C k j j g < ; : D     6 h c Z ^ ^ ^ c h ; ;     ",
"        c c h ; ; * $ $ * : g F       T g : j c k k k k j j C j j h ; j C C k j j j k c k < : q       D < h v P ^ P k g - -     ",
"  |.1.I C C P j < ; $ $ N q               n j k k g : : j C C j ; $ ; j k c k g < < j k k n                 . B j h < * * - 8   ",
"  J.~ L P / / C j < ; 1                   D h h ; - - : < : g : : - < g j h h : ; ; 2 < < D                   D : ; ; ; : h <   ",
"    L P / ( / P k < : ; q                 T g : $ * * - ; g c j h h < j k h < 2 ; ; ; ; < D                   0 * * - ; h k c   ",
"    ^ / | | ^ L k < ; 1                   D < ; ; ; ; < j C Z k h ; g c Z c k g : ; ; : g T                   0 $ * ; : c P ^   ",
"    ( '  . .^ c k < 6                     n j h < ; ; ; g j j i : ; : h h j g ; ; ; : < j n                   0 $ ; : j Z ^ /   ",
"    ......| L k g : q                     B c k h g < : : g j h j k j h j h h h g g j j k j =                 q ; : j j P / |   ",
"     . ...| L g : ;                       C c k j j j c P P ) ^ P c v ^ | | / L c j j j k j T                 q ; j j j ^ | |   ",
"     . . .( L h : q                     q c c k h g h j P ^ / P k j k C ^ ^ C k j g a g C j h B               D i j k L / | P   ",
"    |  .| ( c < 1                     D g c P L k j j g k c C k h : g k C c k g a < g j C k j j               F g c P ^ / C I   ",
"    ' ' ( ^ c < ;                     D j C ^ P Z c k j j j k k k h k k c j < : g g j c L C k k R             ) / ' ' ^ ' c     ",
"    ( ( ( P P j : q                   g k P ( ^ ^ P L k j j h j k k k k h < i h h k L P P P C k j 3       U Z ^ | | ' ( ^ 9     ",
"    ^ P P ^ ( ^ k 1                 D h k P ^ ' ( ^ ^ P k j : < h a a a : i < j j c P ^ ^ ^ P c j n     j h h c v ^ ^ ' E       ",
"    L L P ( | ( C -                 i < j P ' | | ' ( ^ c h ; : : - : ; : g h j c c ^ ' ' ^ P c j h     : : : < j P ^ L 8       ",
"    C ^ ^ P P h < ;                 k k j Z ( | ....| ( P k ; * O * * $ : h j c v ^ ' | | ^ L c j g       , : < g c Y           ",
"      I c j : - * T                 ; < h c ( ..t.#.#.| P h ; * * * 7 * : g j P ^ ^ | | ( P C k j g         E I Q D             ",
"        T 7 7 4                     ; ; h L ( | #.t.t.| c h ; : S       ; : j C Z ^ | | ^ Z C k h g                             ",
"                                    ; ; j P ^ ' ..t...^ c h ; h Y       ; : < m C ^ / / P C j h < <                             ",
"                                    < g c / P P ^ ' ( P j : i j E       ; ; ; g j ^ ^ P Z k j h ; :                             ",
"                                    < g v ^ P L P P P j h j j c E       ; : ; < h k C C k h < ; : T                             ",
"                                    D < c P ^ P P k h g h h c c Q       ; < < : < g j j h < ; ; 6                               ",
"                                      D g c P c h : : ; < h c c E       6 : < ; ; : < g : : ; ; q                               ",
"                                        T g k h < * * * ; < j j Y       q < < ; ; : g h a : ; ; D                               ",
"                                          D g : * - : < < < < h F         9 : - ; h >.S.a < ; ;                                 ",
"                                            6 $ - j k c k j ; < N           ; ; ; j ^.'.g < ; ;                                 ",
"                                            D - j P P ^ P c ; ; <           ; ; ; < U.Y.: ; ; 8                                 ",
"                                            D : j v F.{.P k ; ; :           ; ; ; * 7.D.- < g T                                 ",
"                                              g h g Y. Xk j < < h D         < ; ; * $ $ - < j Y                                 ",
"                                              B g g T D.< ; < g j k R     D ; ; ; $ $ $ - < I                                   ",
"                                              9 c ; ; ; ; ; < j P P ~     q - ; ; ; ; ; ; n .                                   ",
"                                                L : ; ; ; ; h k U P !       ; ; < h h h < q                                     ",
"                                                Q j : ; < < j k c P         : g h j k j g :                                     ",
"                                                  I k j c c v L v         D i h j k k k k h T                                   ",
"                                                  8 L z v ^ / P U         T g k k c k k k j 9                                   ",
"                                                    E v / | | ^ L E       Y j B B j q   ,.< ; q                                 ",
"                                                  I P ' | | | ^ v C         c ~.R.:     J.6.T                                   ",
"                                                ` / ( | ' / ^ P P P I                                                           ",
"                                            O.|  . .( c i ^ P ( ' ' ^                                                           ",
"                                          O.X.F.5.c j g X c c K.<.P c I                                                         ",
"                                              6.&.%.%.$.$.$.%.7.=                                                               "
};
