/* XPM */
static char *_77cb91d4d1c4097d72050fc1c656767[] = {
/* columns rows colors chars-per-pixel */
"64 64 220 2 ",
"   c #000000",
".  c #0D0C0C",
"X  c #131313",
"o  c #181717",
"O  c #1E1D1D",
"+  c #240403",
"@  c #2B0909",
"#  c #390907",
"$  c #3A0A0A",
"%  c #39120D",
"&  c #2F1D1D",
"*  c #341919",
"=  c #2C230F",
"-  c #2A2215",
";  c #312610",
":  c #362A14",
">  c #3B2D15",
",  c #392F19",
"<  c #2A3713",
"1  c #3F3017",
"2  c #3D3219",
"3  c #353819",
"4  c #232323",
"5  c #2A2423",
"6  c #2A2926",
"7  c #2C2C2C",
"8  c #352E29",
"9  c #32302F",
"0  c #343434",
"q  c #3C3333",
"w  c #3C3B3A",
"e  c #4C0404",
"r  c #450A0B",
"t  c #530606",
"y  c #540B0B",
"u  c #5B0B0B",
"i  c #4D1709",
"p  c #481514",
"a  c #5A1414",
"s  c #5A1715",
"d  c #630D0D",
"f  c #67100F",
"g  c #641413",
"h  c #6A1413",
"j  c #681817",
"k  c #651B1B",
"l  c #6D1A1A",
"z  c #731717",
"x  c #741B1B",
"c  c #7B1E1E",
"v  c #482D19",
"b  c #522712",
"n  c #443416",
"m  c #44341A",
"M  c #49361B",
"N  c #4C391C",
"B  c #52371E",
"V  c #523C1E",
"C  c #652D1C",
"Z  c #77211F",
"A  c #4A2C2C",
"S  c #542C2C",
"D  c #5B2828",
"F  c #473626",
"G  c #523D21",
"H  c #553D27",
"J  c #423333",
"K  c #4D3434",
"L  c #4A3A3A",
"P  c #583837",
"I  c #632323",
"U  c #642C2C",
"Y  c #7D2323",
"T  c #782928",
"R  c #7D2C2C",
"E  c #783628",
"W  c #6D3837",
"Q  c #623B3B",
"!  c #773D38",
"~  c #3C451C",
"^  c #2B571E",
"/  c #444519",
"(  c #53411F",
")  c #574525",
"_  c #5D4224",
"`  c #565524",
"'  c #4A4338",
"]  c #624525",
"[  c #694826",
"{  c #64452A",
"}  c #6D4A29",
"|  c #744E2C",
" . c #64552A",
".. c #74512E",
"X. c #7B522E",
"o. c #644F37",
"O. c #784637",
"+. c #6C5034",
"@. c #7C5431",
"#. c #73563A",
"$. c #4E6534",
"%. c #6D6931",
"&. c #444444",
"*. c #4B4241",
"=. c #4D4C4C",
"-. c #584645",
";. c #4E534B",
":. c #58534A",
">. c #5B534D",
",. c #5B5854",
"<. c #684747",
"1. c #764949",
"2. c #675745",
"3. c #765B46",
"4. c #645D55",
"5. c #655E56",
"6. c #735554",
"7. c #65625D",
"8. c #776657",
"9. c #756E66",
"0. c #7E766A",
"q. c #822323",
"w. c #8B2727",
"e. c #852C2C",
"r. c #8D2C2C",
"t. c #922F2F",
"y. c #803C2B",
"u. c #8C3333",
"i. c #883B35",
"p. c #943333",
"a. c #973535",
"s. c #953939",
"d. c #9C3C3C",
"f. c #A43C3C",
"g. c #8D4E35",
"h. c #8F403F",
"j. c #845732",
"k. c #865935",
"l. c #8C5C36",
"z. c #86623A",
"x. c #94623A",
"c. c #9C663D",
"v. c #9E683D",
"b. c #A1693E",
"n. c #834342",
"m. c #894646",
"M. c #9D4242",
"N. c #974846",
"B. c #944948",
"V. c #9C584B",
"C. c #865758",
"Z. c #925554",
"A. c #915D5D",
"S. c #A54343",
"D. c #AA4646",
"F. c #A34D42",
"G. c #A54B4A",
"H. c #AB4C4B",
"J. c #B64F4F",
"K. c #B1504F",
"L. c #A95757",
"P. c #AE5857",
"I. c #B45454",
"U. c #B95757",
"Y. c #B45C5C",
"T. c #BB5C5C",
"R. c #996741",
"E. c #966845",
"W. c #9D6A42",
"Q. c #89705C",
"!. c #A46C41",
"~. c #AA6E44",
"^. c #AD7147",
"/. c #A67C48",
"(. c #B17246",
"). c #B4754A",
"_. c #B77A4C",
"`. c #BA7A4D",
"'. c #B9665D",
"]. c #BE7B52",
"[. c #85746A",
"{. c #8B7470",
"}. c #B46362",
"|. c #BC6362",
" X c #BD6A69",
".X c #B4746F",
"XX c #C15E5E",
"oX c #C27C4E",
"OX c #C37D51",
"+X c #C36465",
"@X c #C86363",
"#X c #C56B6A",
"$X c #C96B6A",
"%X c #DD6C6C",
"&X c #CC706F",
"*X c #C67474",
"=X c #CC7373",
"-X c #D37373",
";X c #DE7777",
":X c #D37B7B",
">X c #DA7C7B",
",X c #748B69",
"<X c #788375",
"1X c #88847D",
"2X c #C68254",
"3X c #CA8355",
"4X c #CA875C",
"5X c #D38A5C",
"6X c #D98E5E",
"7X c #D38E60",
"8X c #DC9363",
"9X c #E4996A",
"0X c #8E8B84",
"qX c #8B9889",
"wX c #9FA89A",
"eX c #9EB598",
"rX c #D48584",
"tX c #DC8E8E",
"yX c #E68686",
"uX c #E69A9A",
/* pixels */
"                                                                                                                                ",
"                                                                                                                                ",
"                                                                                                                                ",
"                                                      7 0                                                                       ",
"                                                    w =.<.uX.X6.1.W P {.rX6.0                                                   ",
"                                                  O =.7 m.=XyX;X;X%X%X>XB.w 6 &.                                                ",
"                                                  O =.. l D.;XyXyX%XT.H.I . 7 4                                                 ",
"                                                  0 0 &.P Y $X;X-XXXD.R p 0 4 0                                                 ",
"                                                          n.$X$XU.+XU.s * J 0 o                                                 ",
"                                                          Z.tX>XU.>X+Xp q                                                       ",
"                                                          1.! P.d.! p a L                                                       ",
"                                                        * A.! u.e.v ! }.<.5                                                     ",
"                                                        Z.N.|.#XJ.k u.H.p <.                                                    ",
"                                                      Q u.e.I.}.H.g y k $ U >.                                                  ",
"                                                    L }.r.e.V.@ % E p @ @ a ! *.                                                ",
"                                                -.A.}.G.S.N.o.% p 3.% + $ $ l Z.A.C.-.                                          ",
"                                              C.*X#X#XT.J.i.A H F H @ + T e.x f.I.XXY.P                                         ",
"                                            0  X=X:X:X=X+XM.a k s k # r R I.f.D.XX$XY.B.5                                       ",
"                                            1.H.XXI.G.=X@XU.T a r # s s.P.G.c q.p.f.S.t.-.                                      ",
"                                            m.h.H.u.M.*X+XJ.p.r.k g G.:XrXH.x h f q.p.c <.                                      ",
"                                            m.f.S.Z s.|.|.H.t.w.q.M.|.*X Xd.z d M.rXU.q.D                                       ",
"                                            B.Y.a.j u.Y.Y.J.s.l Y s.G.G.d.q.d f |.uX=Xp.U J                                     ",
"                                            }.}.u.d d s.M.s.j y g l T x h d t y T.rXH.r.Y O.                                    ",
"                                          J Y.Y.Y u t d u t r s l u e e e e t r s.T.f.w.f.u.w                                   ",
"                                          P G.N.j y e e u h l x x x z h y n i # j r.t.H.#Xs.L                                   ",
"                                          Q s.Y u e P A y l q.q.x x q.x b z. .$.[.T '.=X=Xs.S                                   ",
"                                          1.r.x e D J . ! u.d.t.c p.p.q.%./._.2X.XtXuX+X=XS.Q                                   ",
"                                          Q s.e.l D q & ! z Y w.c w.q.k 2X7X2Xv.h.yX:XD.d.u.K                                   ",
"                                          P G.P.e.g Q m.s.x c c c q.Z / v.2Xx.k.V.XXh.r.g D 5                                   ",
"                                          L L.|.r.g k u.H.p.S.D.w.a.t.` v.z.( } i.Y q.h D J                                     ",
"                                          o L.}.s.l s g.~.XXf.S.a.t.z ` ( N n n u k U A 6                                       ",
"                                            1.}.G.Y C x.^.'.+XD.S.w.Z g./ 3 1 ~ / >.                                            ",
"                                            J B.G.q.E c.OX].OX@XK.S.a.y.( ~ < < ^ <X                                            ",
"                                              L h.p.E c.OX7X5XoX!.F.O.B ] [ [ N 3 ;.                                            ",
"                                                6.r.g.c.).7X6XoXb.g.V n N V V V 0Xw                                             ",
"                                            . qXwXO.} l.!.).3X6XoX| M n : : n N {.                                              ",
"                                              ,X,X$.` X.b.3X3X3Xb._ > > > : : : ,.                                              ",
"                                              qXqX,X$.k.b.b.b.b.j.V ; = > > : : 0X                                              ",
"                                            O qXwXeX0.z.c.b.b.b.X.B ; = : > > :.0X                                              ",
"                                              7 7.<XQ.j.x.b.b.x.| B : = : : : ) ,.                                              ",
"                                                    Q.| l.x.b.j.} M > = ; : 1 9.0                                               ",
"                                                  6 3.| j.j.j.| ] n > = = = > 7.                                                ",
"                                                  9 2...} X.} [ V M n : > = , *.                                                ",
"                                                    2.@.j.[ [ _ N V n m , > G 5.                                                ",
"                                                    8.@.^.} } [ N B > ] G m | 2.w                                               ",
"                                                    ,.W.4Xl.l.c.V m 2 ] _ _ | +.7.                                              ",
"                                                    8.).2X_.~.!.[ B 2 ) ..} | o.,.                                              ",
"                                                  X Q.`.2X5X3X(.@.] 2 G | } ) o.:.                                              ",
"                                                  >.E.^.5X9X3X~.x._ : ] X.] ( 8.&.                                              ",
"                                                  9.E.x.5X8X3X(.l.G m ..| ] } #.>.                                              ",
"                                                  9.) k.8X9X9X].l.m V | { ] } #.7.                                              ",
"                                                  ,.m R.8X9X8X3X@.H F G G 8 F 5.5.                                              ",
"                                                  =.:.x.3X).2X].E.1X- 6 6 7 6 '                                                 ",
"                                                  L 2.c.^.!.!.E.o.0.4 4 7 0 6 7 6                                               ",
"                                                  :.[.X.c.^.R.k.) 5.4 4 0 0 6 4 7                                               ",
"                                                  =.1X] j...{ X.8.:.w 4 7 9 4 w o                                               ",
"                                                    *.4 { 0 J m ,.O X o X w 4 X                                                 ",
"                                                    9 O 0 ,.0 4 9                                                               ",
"                                                    0 O &.0.&.4 &.                                                              ",
"                                                    7 0 7 &.0 4 0                                                               ",
"                                                        0 0 =.                                                                  ",
"                                                                                                                                ",
"                                                                                                                                ",
"                                                                                                                                "
};
